<svg width="20" height="20" viewBox="0 0 20 20" fill="none" xmlns="http://www.w3.org/2000/svg">
<circle cx="10" cy="10" r="8.75" fill="#26A5E4"/>
<path d="M5.01939 9.7478C7.53644 8.60128 9.21448 7.84535 10.0535 7.48015C12.4519 6.43731 12.9496 6.25619 13.2747 6.25005C13.3462 6.24885 13.5053 6.26733 13.6092 6.35514C13.6955 6.4292 13.7198 6.52935 13.732 6.59967C13.7428 6.66991 13.7576 6.83001 13.7455 6.95499C13.616 8.3825 13.0535 11.8466 12.7675 13.4455C12.6474 14.122 12.4087 14.3488 12.178 14.371C11.6762 14.4192 11.2958 14.0245 10.8102 13.6918C10.0508 13.1709 9.62185 12.8467 8.884 12.3385C8.03149 11.7511 8.58454 11.4282 9.07015 10.9007C9.19695 10.7626 11.4065 8.66151 11.4483 8.47094C11.4537 8.4471 11.4591 8.35824 11.4078 8.3114C11.3579 8.26443 11.2837 8.28051 11.2297 8.29321C11.1529 8.31126 9.94019 9.15028 7.5877 10.8101C7.24373 11.0575 6.93214 11.1781 6.65156 11.1718C6.34401 11.1649 5.7505 10.9895 5.3094 10.8397C4.76984 10.6559 4.33954 10.5587 4.37731 10.2466C4.39619 10.0841 4.61067 9.91777 5.01939 9.7478Z" fill="white"/>
</svg>
