<svg width="24" height="24" viewBox="0 0 24 24" fill="none" xmlns="http://www.w3.org/2000/svg">
<g clip-path="url(#clip0_5273_3868)">
<path d="M24 16.125C24 18.4031 22.7351 20.25 20.25 20.25H3.75C1.26488 20.25 0 18.4031 0 16.125V7.875C0 5.59688 1.26488 3.75 3.75 3.75H20.25C22.7351 3.75 24 5.59688 24 7.875V16.125Z" fill="#EC1C24"/>
<path d="M4.86414 6.24601L5.66626 7.87501L7.46439 8.13563L6.16426 9.40126L6.47064 11.1938L4.86414 10.3481L3.25726 11.1938L3.56401 9.40126L2.26501 8.13563L4.06014 7.87501L4.86414 6.24601ZM7.69014 4.87276L7.91251 5.32463L8.41277 5.39701L8.05164 5.74913L8.13601 6.24601L7.69014 6.01126L7.24464 6.24601L7.32901 5.74913L6.96827 5.39701L7.46739 5.32463L7.69014 4.87276ZM9.13426 6.49801L9.35701 6.94951L9.85502 7.02226L9.49539 7.37513L9.58014 7.87126L9.13426 7.63688L8.68877 7.87126L8.77314 7.37513L8.41277 7.02226L8.91114 6.94951L9.13426 6.49801ZM9.13426 9.10651L9.35701 9.55913L9.85502 9.63151L9.49539 9.98363L9.58014 10.4805L9.13426 10.2465L8.68877 10.4805L8.77314 9.98363L8.41277 9.63151L8.91114 9.55913L9.13426 9.10651ZM7.69014 10.9388L7.91251 11.3906L8.41277 11.4626L8.05164 11.8144L8.13601 12.312L7.69014 12.0788L7.24464 12.312L7.32901 11.8144L6.96827 11.4626L7.46739 11.3906L7.69014 10.9388Z" fill="#F9CB38"/>
</g>
<defs>
<clipPath id="clip0_5273_3868">
<rect width="24" height="24" fill="white"/>
</clipPath>
</defs>
</svg>
