<svg width="24" height="24" viewBox="0 0 24 24" fill="none" xmlns="http://www.w3.org/2000/svg">
<path d="M24 16.125C24 18.4031 22.7351 20.25 20.25 20.25H3.75C1.26488 20.25 0 18.4031 0 16.125V7.875C0 5.59688 1.26488 3.75 3.75 3.75H20.25C22.7351 3.75 24 5.59688 24 7.875V16.125Z" fill="#E6E7E8"/>
<path d="M12.9469 10.7422C13.3605 10.5604 13.785 10.5514 14.2215 10.7145C14.6794 10.8866 14.9936 11.1589 15.1635 11.5327C15.3341 11.9074 15.3544 12.3701 15.2254 12.9217C15.528 11.9554 15.4931 11.0625 15.12 10.2439C14.748 9.42637 14.115 8.84887 13.2206 8.51475C12.3488 8.187 11.4799 8.21737 10.6148 8.60137C9.74925 8.98612 9.15563 9.60937 8.83313 10.4685C8.65913 10.9354 8.66513 11.385 8.85488 11.8174C9.04388 12.2501 9.36413 12.5505 9.81525 12.7196C10.2521 12.8827 10.677 12.8741 11.0918 12.6952C11.5069 12.5152 11.8076 12.2092 11.9951 11.7739L12.0413 11.6647C12.2314 11.2316 12.5336 10.9237 12.9469 10.7422Z" fill="#EC1C24"/>
<path d="M11.1116 12.6484C10.6976 12.8306 10.2727 12.8396 9.83771 12.6769C9.37946 12.5051 9.06484 12.2321 8.89496 11.8579C8.72509 11.484 8.70446 11.0213 8.83234 10.47C8.53046 11.4356 8.56609 12.3281 8.93846 13.1464C9.31121 13.9654 9.94384 14.5414 10.8375 14.8763C11.7097 15.2029 12.5786 15.1729 13.4445 14.79C14.3088 14.4049 14.9032 13.7824 15.2246 12.9229C15.4001 12.456 15.3941 12.006 15.2043 11.5744C15.0146 11.1416 14.6943 10.8409 14.2425 10.6718C13.8071 10.5083 13.3822 10.5169 12.9675 10.6961C12.5527 10.8758 12.2516 11.1829 12.0641 11.6168L12.0176 11.7263C11.8278 12.1583 11.5248 12.4665 11.1116 12.6484Z" fill="#1B75BB"/>
<path d="M9.01499 5.79413C9.03899 5.81853 9.05244 5.85139 9.05244 5.88563C9.05244 5.91986 9.03899 5.95272 9.01499 5.97713L6.72824 8.26313C6.7163 8.27512 6.70211 8.28464 6.68649 8.29115C6.67087 8.29766 6.65412 8.30102 6.63719 8.30106C6.62027 8.30109 6.6035 8.2978 6.58786 8.29135C6.57221 8.28491 6.55798 8.27544 6.54599 8.2635C6.534 8.25156 6.52448 8.23737 6.51797 8.22175C6.51146 8.20613 6.50809 8.18938 6.50806 8.17245C6.50802 8.15553 6.51132 8.13877 6.51777 8.12312C6.52421 8.10747 6.53367 8.09324 6.54561 8.08125L8.83199 5.7945C8.84395 5.78241 8.85819 5.77281 8.87388 5.76624C8.88957 5.75968 8.9064 5.75628 8.92341 5.75625C8.94042 5.75621 8.95727 5.75954 8.97298 5.76604C8.9887 5.77254 9.00298 5.78209 9.01499 5.79413ZM9.42749 6.20625C9.43954 6.21821 9.44911 6.23243 9.45564 6.2481C9.46216 6.26378 9.46553 6.28059 9.46553 6.29756C9.46553 6.31454 9.46216 6.33135 9.45564 6.34702C9.44911 6.36269 9.43954 6.37692 9.42749 6.38888L7.14224 8.67525C7.11793 8.69943 7.08503 8.71301 7.05074 8.71301C7.01645 8.71301 6.98355 8.69943 6.95924 8.67525C6.94704 8.66334 6.93734 8.64911 6.93072 8.63339C6.9241 8.61768 6.92069 8.6008 6.92069 8.58375C6.92069 8.5667 6.9241 8.54982 6.93072 8.53411C6.93734 8.51839 6.94704 8.50416 6.95924 8.49225L9.24561 6.20625C9.26974 6.18214 9.30245 6.16859 9.33655 6.16859C9.37066 6.16859 9.40337 6.18214 9.42749 6.20625ZM9.85499 6.63413C9.86719 6.64604 9.87689 6.66027 9.88351 6.67598C9.89013 6.6917 9.89354 6.70857 9.89354 6.72563C9.89354 6.74268 9.89013 6.75956 9.88351 6.77527C9.87689 6.79098 9.86719 6.80522 9.85499 6.81713L7.56824 9.10388C7.55635 9.11591 7.54219 9.12546 7.52658 9.13197C7.51097 9.13849 7.49422 9.14185 7.4773 9.14185C7.46039 9.14185 7.44364 9.13849 7.42803 9.13197C7.41242 9.12546 7.39826 9.11591 7.38636 9.10388C7.36207 9.07955 7.34842 9.04657 7.34842 9.01219C7.34842 8.97781 7.36207 8.94483 7.38636 8.9205L9.67236 6.63413C9.68432 6.62207 9.69855 6.61251 9.71422 6.60598C9.72989 6.59945 9.7467 6.59609 9.76368 6.59609C9.78065 6.59609 9.79746 6.59945 9.81314 6.60598C9.82881 6.61251 9.84303 6.62207 9.85499 6.63413ZM16.1287 6.99225C16.1827 6.94988 16.2337 6.90375 16.2855 6.858L15.222 5.79413C15.1977 5.76986 15.1648 5.75623 15.1305 5.75623C15.0962 5.75623 15.0633 5.76986 15.039 5.79413C15.0147 5.81839 15.0011 5.85131 15.0011 5.88563C15.0011 5.91995 15.0147 5.95286 15.039 5.97713L16.0946 7.03238C16.1032 7.01688 16.1148 7.00325 16.1287 6.99225ZM17.5087 8.08088L16.4764 7.04813C16.4122 7.1055 16.347 7.16288 16.2791 7.21613L17.3257 8.26275C17.3504 8.28408 17.3822 8.2953 17.4148 8.29416C17.4474 8.29302 17.4784 8.27962 17.5015 8.25663C17.5247 8.23364 17.5383 8.20275 17.5396 8.17017C17.5409 8.13758 17.5299 8.10569 17.5087 8.08088ZM17.0966 8.67375C17.0724 8.69791 17.0395 8.71147 17.0053 8.71147C16.9711 8.71147 16.9382 8.69791 16.914 8.67375L14.6272 6.38738C14.6144 6.37555 14.6042 6.36125 14.597 6.34535C14.5899 6.32945 14.586 6.31227 14.5857 6.29484C14.5853 6.27741 14.5885 6.26009 14.595 6.24393C14.6016 6.22776 14.6113 6.21308 14.6236 6.20076C14.636 6.18845 14.6507 6.17876 14.6669 6.17227C14.683 6.16578 14.7004 6.16262 14.7178 6.163C14.7352 6.16337 14.7524 6.16726 14.7683 6.17443C14.7842 6.18161 14.7984 6.19192 14.8102 6.20475L17.0966 8.49075C17.1086 8.50277 17.1182 8.51703 17.1247 8.53273C17.1312 8.54843 17.1345 8.56526 17.1345 8.58225C17.1345 8.59925 17.1312 8.61607 17.1247 8.63177C17.1182 8.64747 17.1086 8.66174 17.0966 8.67375ZM15.2404 7.8465C15.3071 7.79475 15.363 7.7325 15.4147 7.66538L14.3831 6.63413C14.3713 6.62132 14.357 6.61104 14.3411 6.60389C14.3252 6.59675 14.308 6.5929 14.2906 6.59256C14.2731 6.59222 14.2558 6.59541 14.2397 6.60194C14.2235 6.60846 14.2088 6.61818 14.1965 6.63052C14.1842 6.64286 14.1745 6.65756 14.168 6.67374C14.1615 6.68992 14.1584 6.70725 14.1587 6.72467C14.1591 6.7421 14.163 6.75928 14.1702 6.77516C14.1773 6.79105 14.1877 6.80532 14.2005 6.81713L15.2366 7.8525C15.2362 7.85213 15.2381 7.8495 15.2404 7.8465ZM16.6687 8.9205L15.606 7.85775C15.5512 7.92525 15.4901 7.98638 15.4249 8.0415L16.4861 9.1035C16.498 9.11569 16.5122 9.12538 16.5279 9.13199C16.5436 9.13861 16.5604 9.14202 16.5774 9.14202C16.5944 9.14202 16.6113 9.13861 16.627 9.13199C16.6427 9.12538 16.6569 9.11569 16.6687 9.1035C16.6808 9.09149 16.6903 9.07722 16.6968 9.06152C16.7033 9.04582 16.7067 9.029 16.7067 9.012C16.7067 8.99501 16.7033 8.97818 16.6968 8.96248C16.6903 8.94678 16.6808 8.93252 16.6687 8.9205ZM16.1092 16.3793L15.0832 17.406C15.0591 17.4303 15.0455 17.4631 15.0455 17.4973C15.0455 17.5315 15.0591 17.5644 15.0832 17.5886C15.0952 17.6007 15.1094 17.6102 15.1251 17.6168C15.1408 17.6233 15.1576 17.6267 15.1746 17.6267C15.1915 17.6267 15.2083 17.6233 15.224 17.6168C15.2397 17.6102 15.2539 17.6007 15.2659 17.5886L16.2847 16.569C16.2266 16.5053 16.1685 16.4423 16.1092 16.3793ZM17.5526 15.12C17.5281 15.0959 17.495 15.0826 17.4607 15.0828C17.4263 15.083 17.3935 15.0968 17.3692 15.1211L16.3009 16.1888C16.3597 16.2529 16.4182 16.3155 16.4767 16.3785L17.5526 15.3034C17.5765 15.2788 17.5898 15.2459 17.5898 15.2117C17.5898 15.1775 17.5765 15.1446 17.5526 15.12ZM15.7084 15.9574L14.6707 16.9939C14.6467 17.0183 14.6333 17.0511 14.6333 17.0854C14.6333 17.1196 14.6467 17.1525 14.6707 17.1769C14.6951 17.2012 14.7282 17.2149 14.7626 17.2149C14.7971 17.2149 14.8301 17.2012 14.8545 17.1769L15.8865 16.1441C15.8265 16.0811 15.7684 16.0181 15.7084 15.9574ZM17.1397 14.7075C17.1279 14.6955 17.1137 14.6859 17.0982 14.6794C17.0826 14.6729 17.0659 14.6696 17.049 14.6696C17.0321 14.6696 17.0154 14.6729 16.9998 14.6794C16.9842 14.6859 16.9701 14.6955 16.9582 14.7075L15.9 15.765C15.9607 15.8265 16.0185 15.8891 16.0789 15.9518L17.1401 14.8901C17.1523 14.8782 17.1619 14.864 17.1685 14.8483C17.1751 14.8326 17.1785 14.8158 17.1784 14.7987C17.1784 14.7817 17.175 14.7649 17.1683 14.7492C17.1617 14.7335 17.152 14.7194 17.1397 14.7075ZM15.2625 15.5471L14.2425 16.566C14.2187 16.5905 14.2053 16.6233 14.2053 16.6575C14.2053 16.6917 14.2187 16.7245 14.2425 16.749C14.2669 16.7733 14.2999 16.787 14.3344 16.787C14.3688 16.787 14.4018 16.7733 14.4262 16.749L15.453 15.7208C15.39 15.663 15.3292 15.6015 15.2625 15.5471ZM15.6465 15.5288L16.7119 14.4619C16.7241 14.45 16.7338 14.4358 16.7405 14.4201C16.7471 14.4043 16.7506 14.3874 16.7506 14.3704C16.7506 14.3533 16.7471 14.3364 16.7405 14.3207C16.7338 14.305 16.7241 14.2908 16.7119 14.2789C16.7 14.2668 16.6858 14.2573 16.6702 14.2508C16.6546 14.2443 16.6378 14.2409 16.6209 14.2409C16.604 14.2409 16.5873 14.2443 16.5717 14.2508C16.556 14.2573 16.5419 14.2668 16.53 14.2789L15.4549 15.354C15.522 15.4099 15.5827 15.4703 15.6465 15.5288ZM7.96799 16.3905C7.91399 16.4325 7.86336 16.479 7.81086 16.5248L8.87511 17.5886C8.88704 17.6007 8.90123 17.6102 8.91687 17.6167C8.93251 17.6233 8.94929 17.6266 8.96624 17.6266C8.98319 17.6266 8.99996 17.6233 9.01561 17.6167C9.03125 17.6102 9.04544 17.6007 9.05736 17.5886C9.06946 17.5767 9.07907 17.5625 9.08563 17.5468C9.09218 17.5311 9.09556 17.5143 9.09556 17.4973C9.09556 17.4803 9.09218 17.4635 9.08563 17.4478C9.07907 17.4321 9.06946 17.4179 9.05736 17.406L8.00249 16.35C7.99347 16.3654 7.98179 16.3791 7.96799 16.3905ZM6.58911 15.3019L7.62111 16.3346C7.68561 16.2776 7.74974 16.2199 7.81799 16.167L6.77136 15.12C6.74677 15.0983 6.71484 15.0868 6.68207 15.0878C6.64929 15.0888 6.61813 15.1023 6.59492 15.1254C6.57172 15.1486 6.5582 15.1797 6.55712 15.2125C6.55604 15.2453 6.56748 15.2772 6.58911 15.3019ZM9.46874 16.995L8.42661 15.9529C8.36924 16.0058 8.31261 16.0601 8.25261 16.1096C8.24474 16.1164 8.23686 16.119 8.22974 16.1231L9.28536 17.178C9.29738 17.19 9.31165 17.1996 9.32736 17.2061C9.34307 17.2126 9.35991 17.216 9.37692 17.216C9.39393 17.2161 9.41078 17.2127 9.4265 17.2062C9.44222 17.1997 9.45651 17.1902 9.46855 17.1782C9.48059 17.1662 9.49015 17.1519 9.49667 17.1362C9.5032 17.1205 9.50657 17.1036 9.50659 17.0866C9.5066 17.0696 9.50327 17.0528 9.49678 17.0371C9.49028 17.0213 9.48076 17.007 9.46874 16.995ZM8.05536 15.9236C8.11761 15.8708 8.17611 15.8153 8.23611 15.7598L7.18311 14.7075C7.17131 14.6947 7.15704 14.6844 7.14115 14.6772C7.12526 14.67 7.10809 14.6661 7.09066 14.6657C7.07323 14.6654 7.05591 14.6685 7.03973 14.675C7.02355 14.6815 7.00885 14.6912 6.99651 14.7035C6.98417 14.7158 6.97445 14.7305 6.96792 14.7467C6.9614 14.7628 6.95821 14.7802 6.95855 14.7976C6.95888 14.815 6.96274 14.8322 6.96988 14.8481C6.97703 14.864 6.98731 14.8783 7.00011 14.8901L8.04561 15.9356C8.05011 15.9315 8.05124 15.9281 8.05536 15.9236ZM7.42949 14.28C7.44134 14.2678 7.4555 14.2581 7.47116 14.2515C7.48681 14.2449 7.50362 14.2415 7.52061 14.2415C7.5376 14.2415 7.55442 14.2449 7.57007 14.2515C7.58573 14.2581 7.59989 14.2678 7.61174 14.28L9.89849 16.566C9.92267 16.5903 9.93625 16.6232 9.93625 16.6575C9.93625 16.6918 9.92267 16.7247 9.89849 16.749C9.88653 16.7611 9.87228 16.7707 9.85657 16.7773C9.84086 16.7838 9.82401 16.7872 9.80699 16.7872C9.78997 16.7872 9.77311 16.7838 9.75741 16.7773C9.7417 16.7707 9.72745 16.7611 9.71549 16.749L7.42949 14.4623C7.41731 14.4504 7.40763 14.4362 7.40102 14.4206C7.39441 14.4049 7.391 14.3881 7.391 14.3711C7.391 14.3541 7.39441 14.3373 7.40102 14.3217C7.40763 14.306 7.41731 14.2918 7.42949 14.28Z" fill="#231F20"/>
<path d="M6.58351 15.1163C6.59553 15.1042 6.60979 15.0947 6.62549 15.0882C6.64119 15.0817 6.65802 15.0783 6.67501 15.0783C6.69201 15.0783 6.70883 15.0817 6.72453 15.0882C6.74023 15.0947 6.7545 15.1042 6.76651 15.1163L9.05214 17.4023C9.06415 17.4143 9.07368 17.4285 9.08019 17.4442C9.08669 17.4599 9.09004 17.4768 9.09004 17.4938C9.09004 17.5107 9.08669 17.5276 9.08019 17.5433C9.07369 17.559 9.06415 17.5732 9.05214 17.5853C9.04012 17.5973 9.02586 17.6068 9.01016 17.6133C8.99446 17.6198 8.97763 17.6232 8.96064 17.6232C8.94365 17.6232 8.92682 17.6198 8.91112 17.6133C8.89542 17.6068 8.88115 17.5973 8.86914 17.5853L6.58351 15.2993C6.5714 15.2873 6.56179 15.273 6.55523 15.2573C6.54867 15.2416 6.54529 15.2248 6.54529 15.2078C6.54529 15.1907 6.54867 15.1739 6.55523 15.1582C6.56179 15.1425 6.5714 15.1282 6.58351 15.1163ZM8.85751 15.5363C8.79171 15.5889 8.73309 15.6499 8.68314 15.7178L9.71439 16.749C9.73866 16.7733 9.77157 16.7869 9.80589 16.7869C9.84021 16.7869 9.87312 16.7733 9.89739 16.749C9.92165 16.7247 9.93529 16.6918 9.93529 16.6575C9.93529 16.6232 9.92165 16.5903 9.89739 16.566L8.86126 15.5306L8.85751 15.5363ZM7.42951 14.4623L8.49114 15.525C8.54626 15.4575 8.60664 15.3968 8.67301 15.3413L7.61176 14.28C7.59992 14.2678 7.58575 14.2581 7.5701 14.2515C7.55445 14.2449 7.53763 14.2415 7.52064 14.2415C7.50365 14.2415 7.48683 14.2449 7.47118 14.2515C7.45553 14.2581 7.44136 14.2678 7.42951 14.28C7.41733 14.2918 7.40765 14.306 7.40104 14.3217C7.39443 14.3373 7.39103 14.3541 7.39103 14.3711C7.39103 14.3881 7.39443 14.4049 7.40104 14.4206C7.40765 14.4362 7.41733 14.4504 7.42951 14.4623Z" fill="#231F20"/>
</svg>
