<svg width="138" height="26" viewBox="0 0 138 26" fill="none" xmlns="http://www.w3.org/2000/svg">
<path d="M10.3309 12.4337C10.1697 12.4181 10.0514 12.2715 10.0662 12.1054C10.0817 11.9385 10.2211 11.816 10.3854 11.8324C10.4266 11.8363 14.577 12.2302 18.947 12.2302C20.838 12.2302 22.7462 12.1568 24.3095 12.0726V6.40679C22.5718 6.26328 20.251 6.2235 19.1548 6.2235C15.0683 6.2235 11.9806 6.62363 11.0946 7.26868C10.2693 7.87005 9.12256 10.7919 8.75042 11.8675L8.73096 11.9236L8.69203 11.9681C8.67334 11.9899 8.33157 12.376 7.76012 12.8526C7.75934 12.8542 7.757 12.8557 7.757 12.8557C7.54446 13.0328 7.30312 13.2208 7.03141 13.4087C6.14309 14.0234 6.00217 14.3166 5.96169 15.6488C5.93366 16.5333 5.94846 17.7197 5.96247 18.8678C5.97103 19.5379 5.97882 20.1712 5.97882 20.7515C5.97882 21.9761 6.42103 22.5712 7.33114 22.5712H12.422C12.6042 22.3271 13.0448 21.7405 13.4396 21.2429C13.9736 20.5705 14.4338 20.296 15.0293 20.296H24.3103V18.9349H12.7155C12.5536 18.9349 12.422 18.8 12.422 18.6331C12.422 18.4669 12.5536 18.3312 12.7155 18.3312H24.3103V16.928H14.6494C14.4875 16.928 14.3567 16.7923 14.3567 16.6262C14.3567 16.4593 14.4883 16.3235 14.6494 16.3235H24.3103V12.6779C22.7439 12.7613 20.8372 12.8347 18.9477 12.8347C14.549 12.8347 10.3721 12.4384 10.3309 12.4337ZM12.7373 16.1223L12.0032 17.0232C11.9448 17.0942 11.8622 17.1308 11.7782 17.1308C11.712 17.1308 11.645 17.1082 11.5898 17.0598C11.466 16.9522 11.4496 16.7619 11.5539 16.634L12.1044 15.9585C11.9284 15.7479 11.2955 15.3158 10.0327 15.0943C9.09765 14.9289 8.18286 15.0654 7.82785 15.1333C7.76323 15.3837 7.69316 15.9374 8.10968 16.4803C8.21011 16.6106 8.18831 16.8009 8.06141 16.9046C7.93451 17.0084 7.74999 16.9865 7.64956 16.8555C6.8718 15.8423 7.31713 14.7916 7.33659 14.748L7.39576 14.613L7.53512 14.5787C7.58651 14.5654 8.81738 14.2675 10.1308 14.4991C11.6162 14.7604 12.7358 15.4117 12.7358 16.0131V16.1223H12.7373Z" fill="white"/>
<path d="M24.0319 23.1749H10.3678V24.9744C10.3662 25.0297 10.3623 25.0859 10.3538 25.1421H22.1167C23.2845 25.1421 24.239 24.1858 24.299 22.9963C24.2523 23.1016 24.1511 23.1749 24.0319 23.1749Z" fill="white"/>
<path d="M8.2191 11.6054C8.27827 11.4361 8.41529 11.0555 8.60214 10.5805C8.05094 10.4752 6.82007 10.2747 5.76982 10.3527C5.63124 10.3629 5.60554 10.412 5.59464 10.4331C5.47241 10.6616 5.67795 11.2864 5.87259 11.6881C6.33115 11.9369 7.17664 12.1888 7.51064 12.2832C7.87967 11.9642 8.12879 11.7037 8.2191 11.6054Z" fill="white"/>
<path d="M6.71558 23.0907L6.74438 25.0001L6.74361 25.0095C6.7405 25.0664 6.74672 25.1038 6.75217 25.142H9.75033C9.76746 25.0812 9.77914 25.0141 9.7807 24.9658V23.1749H7.32985C7.14689 23.1757 6.93357 23.1546 6.71558 23.0907Z" fill="white"/>
<path d="M13.8921 21.6259C13.6422 21.941 13.372 22.2943 13.1626 22.5712H24.0318C24.1665 22.5712 24.2755 22.6671 24.3098 22.7943V20.9005H15.028C14.673 20.9005 14.3732 21.019 13.8921 21.6259Z" fill="white"/>
<path d="M6.12473 22.781C5.71444 22.4441 5.39212 21.8357 5.39212 20.7507C5.39212 20.1751 5.38434 19.5433 5.37655 18.8749C5.36254 17.7205 5.34775 16.5263 5.37578 15.6294C5.42093 14.202 5.60077 13.6716 6.70552 12.9064C6.78571 12.851 6.86123 12.7957 6.93597 12.7403C6.48208 12.5991 5.86781 12.3862 5.50579 12.1686L5.43417 12.1257L5.39524 12.0508C5.28546 11.8402 4.75372 10.7568 5.08148 10.1422C5.16868 9.97836 5.35165 9.77791 5.72846 9.74983C6.94532 9.65935 8.33579 9.90895 8.83405 10.0103C9.344 8.78733 10.0805 7.26791 10.7578 6.77496C12.2308 5.70326 17.5584 5.61981 19.1559 5.61981C19.581 5.61981 22.2491 5.62682 24.3106 5.79842V2.33918C24.3106 1.09511 23.3235 0.0772247 22.1167 0.0772247H2.19466C0.987928 0.0772247 0.000732422 1.09511 0.000732422 2.33918V22.8801C0.000732422 24.1242 0.987928 25.1428 2.19466 25.1428H6.16832C6.16521 25.0929 6.15665 25.0485 6.15899 24.9915L6.12473 22.781Z" fill="white"/>
<path d="M51.1344 2.22296C51.1344 2.58019 51.1344 2.89765 51.0947 3.17532C51.0549 3.453 51.0152 3.65189 50.9366 3.81023C50.8969 3.96935 50.8183 4.0879 50.6999 4.16746C50.6213 4.24702 50.5022 4.2868 50.3839 4.2868H44.1423V24.4916C44.1423 24.6507 44.1026 24.7692 44.024 24.8488C43.9445 24.9681 43.7873 25.0477 43.5895 25.1265C43.3918 25.1662 43.1551 25.206 42.839 25.2458C42.4832 25.2856 42.0885 25.3254 41.6144 25.3254C41.1005 25.3254 40.7058 25.2856 40.3897 25.2458C40.0339 25.206 39.7973 25.1662 39.5995 25.1265C39.4018 25.0469 39.2437 24.9673 39.1651 24.8488C39.0857 24.7692 39.0467 24.6499 39.0467 24.4916V4.2868H32.8052C32.6869 4.2868 32.5685 4.24702 32.4891 4.16746C32.3708 4.0879 32.2914 3.96935 32.2524 3.81023C32.173 3.65111 32.1341 3.453 32.0944 3.17532C32.0547 2.89765 32.0547 2.58019 32.0547 2.22296C32.0547 1.82595 32.0547 1.50849 32.0944 1.23081C32.1341 0.953139 32.1738 0.754246 32.2524 0.595909C32.2921 0.437572 32.3708 0.318234 32.4891 0.238675C32.5685 0.159117 32.6869 0.120117 32.8052 0.120117H50.3854C50.5037 0.120117 50.6229 0.159897 50.7015 0.238675C50.8198 0.318234 50.8985 0.437572 50.9382 0.595909C51.0176 0.755026 51.0565 0.953139 51.0962 1.23081C51.1343 1.50771 51.1344 1.82595 51.1344 2.22296Z" fill="white"/>
<path d="M60.3849 4.92171L56.869 15.5599H63.9405L60.3849 4.92171ZM71.8419 23.3005C71.9999 23.7771 72.1182 24.1343 72.1579 24.412C72.1977 24.6897 72.1182 24.8886 71.9999 25.0071C71.8419 25.1662 71.6044 25.2458 71.2494 25.2848C70.8936 25.3246 70.3805 25.3246 69.7484 25.3246C69.1162 25.3246 68.6031 25.3246 68.2076 25.2848C67.8518 25.2848 67.5755 25.245 67.3777 25.1655C67.18 25.1257 67.0616 25.0461 66.983 24.9276C66.9044 24.848 66.8249 24.6897 66.7852 24.5306L65.1262 19.4895H55.7237L54.1433 24.3722C54.1036 24.5703 54.025 24.7294 53.9456 24.8488C53.8661 24.9681 53.7486 25.0867 53.5508 25.1265C53.3531 25.206 53.0767 25.2458 52.7606 25.2856C52.4048 25.3253 51.9704 25.3254 51.4177 25.3254C50.8252 25.3254 50.3511 25.2856 50.035 25.2458C49.6792 25.206 49.4425 25.1265 49.3242 24.9681C49.2058 24.8488 49.1661 24.6109 49.2058 24.373C49.2455 24.0953 49.3241 23.7381 49.4822 23.2615L57.1859 1.03192C57.2653 0.794024 57.3439 0.634909 57.4622 0.475792C57.5416 0.357234 57.6997 0.237892 57.9364 0.158333C58.173 0.118554 58.4891 0.0397753 58.8846 0.0397753C59.2794 -3.99821e-06 59.7932 0 60.4651 0C61.2156 0 61.808 -3.99821e-06 62.2822 0.0397753C62.7166 0.0397753 63.0716 0.119334 63.3091 0.158333C63.5854 0.237892 63.7435 0.357234 63.8618 0.475792C63.9802 0.634909 64.0596 0.833025 64.1382 1.0717L71.8419 23.3005Z" fill="white"/>
<path d="M89.9876 24.5313C89.9876 24.6499 89.9479 24.7692 89.8692 24.8488C89.7898 24.9681 89.6715 25.0477 89.4745 25.1265C89.2768 25.1662 89.0401 25.206 88.724 25.2458C88.4079 25.2856 88.0132 25.3254 87.5391 25.3254C87.0252 25.3254 86.6305 25.2856 86.3144 25.2458C85.9984 25.206 85.722 25.1662 85.5242 25.1265C85.3265 25.0469 85.1684 24.9673 85.0501 24.8488C84.9707 24.7692 84.9318 24.6499 84.9318 24.5313V15.9569C84.2599 16.0365 83.5888 16.0755 82.9169 16.1153C82.2847 16.1551 81.6136 16.1948 80.9417 16.1948C79.5591 16.1948 78.3344 16.0755 77.1892 15.8376C76.0829 15.5599 75.0949 15.1629 74.2657 14.528C73.4755 13.9321 72.8434 13.0991 72.3692 12.0274C71.9348 10.9557 71.7371 9.60552 71.7371 7.97847V0.794022C71.7371 0.674685 71.7768 0.556129 71.8562 0.47657C71.8959 0.358012 72.0539 0.278453 72.2509 0.238674C72.4089 0.159116 72.6853 0.120114 73.0014 0.0803347C73.3175 0.0405554 73.7122 0.000778198 74.1871 0.000778198C74.6613 0.000778198 75.056 0.0405554 75.4118 0.0803347C75.7279 0.120114 76.0042 0.159896 76.202 0.238674C76.3997 0.278453 76.5578 0.358012 76.6364 0.47657C76.7158 0.556129 76.7945 0.675465 76.7945 0.794022V7.4629C76.7945 8.25693 76.8739 8.93162 77.0311 9.48697C77.1892 10.0431 77.4259 10.5189 77.8214 10.9159C78.1771 11.2731 78.6902 11.5508 79.2834 11.7497C79.9156 11.9486 80.6661 12.0274 81.5747 12.0274C82.1671 12.0274 82.7207 12.0274 83.2735 11.9876C83.827 11.9478 84.3798 11.8683 84.9325 11.8285V0.794022C84.9325 0.674685 84.9722 0.556129 85.0509 0.47657C85.1692 0.358012 85.3272 0.278453 85.525 0.238674C85.7227 0.159116 85.9991 0.120114 86.3152 0.0803347C86.6313 0.0405554 87.026 0.000778198 87.5399 0.000778198C88.014 0.000778198 88.4095 0.0405554 88.7248 0.0803347C89.0409 0.120114 89.2783 0.159896 89.4753 0.238674C89.6731 0.278453 89.7914 0.358012 89.87 0.47657C89.9494 0.556129 89.9884 0.675465 89.9884 0.794022V24.5313H89.9876Z" fill="white"/>
<path d="M113.941 24.5313C113.941 24.6499 113.902 24.809 113.822 24.8886C113.743 24.9681 113.585 25.0477 113.388 25.1265C113.19 25.206 112.914 25.2458 112.598 25.2856C112.242 25.3253 111.847 25.3254 111.295 25.3254C110.742 25.3254 110.307 25.3253 109.952 25.2856C109.636 25.2458 109.359 25.206 109.161 25.1265C108.924 25.0469 108.767 24.9673 108.687 24.809C108.569 24.6897 108.49 24.5703 108.45 24.3722L106.435 18.775C106.159 17.981 105.882 17.3063 105.566 16.751C105.25 16.1948 104.894 15.7588 104.539 15.4016C104.144 15.0841 103.749 14.8065 103.275 14.6871C102.801 14.528 102.248 14.4485 101.655 14.4485H100.509V24.4916C100.509 24.6507 100.47 24.7692 100.391 24.8488C100.312 24.9681 100.193 25.0477 99.9964 25.1265C99.7987 25.206 99.562 25.2458 99.2459 25.2856C98.8901 25.3253 98.4954 25.3254 97.9815 25.3254C97.5074 25.3254 97.1127 25.3253 96.7569 25.2856C96.4408 25.2458 96.1644 25.206 96.0064 25.1265C95.8086 25.0469 95.6506 24.9673 95.572 24.8488C95.4925 24.7692 95.4536 24.6499 95.4536 24.4916V0.794024C95.4536 0.674686 95.4933 0.556128 95.572 0.43679C95.6514 0.357232 95.8086 0.277673 96.0064 0.198894C96.1644 0.119336 96.4408 0.0795601 96.7569 0.0405608C97.1127 0.0405608 97.5074 0.000779557 97.9815 0.000779557C98.4954 0.000779557 98.8901 0.0405608 99.2459 0.0405608C99.562 0.0803401 99.7987 0.120116 99.9964 0.198894C100.193 0.278453 100.312 0.358012 100.391 0.43679C100.471 0.556128 100.509 0.674686 100.509 0.794024V10.2412H101.655C102.247 10.2412 102.761 10.1617 103.195 10.0025C103.63 9.84342 104.025 9.60552 104.38 9.24829C104.736 8.93083 105.052 8.49405 105.329 7.9387C105.605 7.42235 105.882 6.74765 106.159 5.95441L107.857 0.952363C107.896 0.794026 107.976 0.634905 108.094 0.515567C108.173 0.396229 108.331 0.277673 108.528 0.198115C108.725 0.158335 108.963 0.0787746 109.319 0.0397753C109.635 0.0397753 110.069 0 110.622 0C111.136 0 111.53 0.0397753 111.886 0.0397753C112.202 0.0795545 112.439 0.119336 112.637 0.198115C112.834 0.237894 112.953 0.317453 113.031 0.436011C113.071 0.515569 113.11 0.634127 113.11 0.793244C113.11 0.951581 113.071 1.15048 113.031 1.38837C112.952 1.66605 112.873 1.98351 112.715 2.38052L111.056 6.82643C110.74 7.66024 110.424 8.3747 110.108 8.93005C109.832 9.52518 109.477 10.0018 109.16 10.4385C108.805 10.8356 108.449 11.153 108.054 11.4307C107.699 11.6686 107.263 11.9073 106.789 12.0656C107.303 12.3035 107.777 12.5422 108.212 12.8198C108.606 13.0975 109.001 13.4548 109.396 13.8915C109.751 14.3283 110.107 14.8439 110.423 15.4398C110.779 16.0747 111.095 16.829 111.451 17.7423L113.505 22.9425C113.703 23.4588 113.821 23.8161 113.861 24.0142C113.902 24.2537 113.941 24.412 113.941 24.5313Z" fill="white"/>
<path d="M138 24.5313C138 24.6897 137.96 24.809 137.882 24.8886C137.802 24.9681 137.644 25.0477 137.447 25.1265C137.249 25.206 137.013 25.2458 136.697 25.2856C136.342 25.3253 135.946 25.3254 135.472 25.3254C134.958 25.3254 134.564 25.3253 134.247 25.2856C133.892 25.2458 133.655 25.206 133.457 25.1265C133.26 25.0469 133.141 24.9673 133.063 24.8886C132.983 24.809 132.944 24.6897 132.944 24.5313V11.3129C132.944 10.8363 132.944 10.3208 132.984 9.8442C132.984 9.36762 132.984 8.93161 133.024 8.57438H132.984C132.866 8.7335 132.747 8.93161 132.628 9.16951C132.47 9.4074 132.312 9.68586 132.154 9.92376C131.996 10.2014 131.838 10.4799 131.64 10.7576C131.482 11.0352 131.284 11.3129 131.126 11.5516L122.435 24.5719C122.316 24.6912 122.237 24.8496 122.119 24.9291C122 25.0485 121.882 25.128 121.684 25.167C121.526 25.2466 121.289 25.2864 121.052 25.2864C120.815 25.3261 120.46 25.3261 120.064 25.3261C119.59 25.3261 119.155 25.3261 118.879 25.2864C118.563 25.2466 118.326 25.2068 118.129 25.1272C117.971 25.0477 117.852 24.9681 117.773 24.8893C117.733 24.77 117.693 24.6507 117.693 24.4923V0.794024C117.693 0.674686 117.733 0.556128 117.812 0.43679C117.89 0.357232 118.048 0.277673 118.246 0.198894C118.443 0.119336 118.681 0.0795601 119.036 0.0405608C119.352 0.0405608 119.748 0.000779557 120.221 0.000779557C120.735 0.000779557 121.13 0.0405608 121.486 0.0405608C121.802 0.0803401 122.038 0.120116 122.236 0.198894C122.434 0.278453 122.552 0.358012 122.631 0.43679C122.71 0.556128 122.749 0.674686 122.749 0.794024V14.092C122.749 14.489 122.749 14.9258 122.749 15.4016C122.709 15.8782 122.709 16.315 122.67 16.751H122.709C122.946 16.354 123.223 15.9172 123.539 15.3618C123.894 14.8057 124.25 14.2901 124.606 13.7738L133.258 0.753463C133.376 0.634125 133.455 0.515569 133.574 0.436011C133.653 0.316673 133.811 0.237114 133.969 0.198115C134.166 0.118556 134.363 0.0787746 134.641 0.0397753C134.877 0.0397753 135.193 0 135.589 0C136.103 0 136.497 0.0397753 136.774 0.0397753C137.09 0.0795545 137.327 0.119336 137.524 0.198115C137.682 0.277673 137.84 0.357232 137.879 0.436011C137.959 0.555348 137.998 0.673906 137.998 0.793244V24.5313H138Z" fill="white"/>
</svg>
