<svg width="24" height="24" viewBox="0 0 24 24" fill="none" xmlns="http://www.w3.org/2000/svg">
<path d="M19.9805 5.99023C19.7207 5.99798 19.4741 6.10655 19.293 6.29297L8.99999 16.5859L5.70702 13.293C5.61488 13.197 5.50451 13.1204 5.38238 13.0676C5.26025 13.0148 5.12882 12.9869 4.99578 12.9856C4.86274 12.9842 4.73076 13.0094 4.60759 13.0597C4.48441 13.11 4.37251 13.1844 4.27843 13.2784C4.18435 13.3725 4.10999 13.4844 4.0597 13.6076C4.00941 13.7308 3.9842 13.8627 3.98556 13.9958C3.98691 14.1288 4.0148 14.2603 4.06758 14.3824C4.12036 14.5045 4.19699 14.6149 4.29296 14.707L8.29296 18.707C8.4805 18.8945 8.73482 18.9998 8.99999 18.9998C9.26516 18.9998 9.51948 18.8945 9.70702 18.707L20.707 7.70703C20.8515 7.56657 20.9502 7.38573 20.9902 7.18821C21.0301 6.99069 21.0095 6.7857 20.931 6.60012C20.8524 6.41453 20.7196 6.257 20.55 6.14817C20.3804 6.03935 20.1819 5.98429 19.9805 5.99023Z" fill="#151515"/>
</svg>
